# Blender v3.0.1 OBJ File: 'model2.blend'
# www.blender.org
mtllib myRobot.mtl
o Cube
v 1.000000 1.000000 -1.000000
v 1.000000 -1.000000 -1.000000
v 1.000000 1.000000 1.000000
v 1.000000 -1.000000 1.000000
v -1.000000 1.000000 -1.000000
v -1.000000 -1.000000 -1.000000
v -1.000000 1.000000 1.000000
v -1.000000 -1.000000 1.000000
v 1.000000 2.769380 1.000000
v -1.000000 2.769380 1.000000
v 1.000000 2.769380 -1.000000
v -1.000000 2.769380 -1.000000
v 0.661427 -0.661427 -3.320894
v -0.661427 -0.661427 -3.320894
v 0.661427 0.661427 -3.320894
v -0.661427 0.661427 -3.320894
v -0.662172 -0.702558 3.416960
v -0.702632 0.662207 3.402568
v 0.662172 0.702558 3.392085
v 0.702632 -0.662207 3.406477
v -1.000000 -1.000000 0.000000
v 1.000000 -1.000000 0.000000
v 1.291090 -3.843791 -2.473258
v -0.163280 -3.843791 -2.473258
v 1.338245 -3.874114 -1.450518
v -0.184954 -3.832400 -1.405158
v -0.583467 -3.924285 0.862360
v -0.578599 -3.926760 1.701082
v 0.930986 -3.926760 1.701082
v 0.926587 -3.924523 0.870441
vt 0.000000 0.754509
vt 0.131877 0.907557
vt 0.000000 0.907561
vt 0.220065 0.184868
vt 0.342166 0.001116
vt 0.368900 0.184904
vt 0.368900 0.337956
vt 0.220065 0.337919
vt 0.220065 0.261393
vt 0.446927 0.729136
vt 0.328756 0.515644
vt 0.441386 0.515644
vt 0.632568 0.184014
vt 0.781765 0.184014
vt 0.781774 0.260538
vt 0.243443 0.515620
vt 0.499644 0.767371
vt 0.648865 0.920420
vt 0.499644 0.920422
vt 0.798087 0.514923
vt 0.928631 0.667880
vt 0.798087 0.667973
vt 0.500573 0.337988
vt 0.632584 0.337063
vt 0.500574 0.184014
vt 0.896682 0.804251
vt 0.798086 0.905486
vt 0.798086 0.804253
vt 0.446928 0.729136
vt 0.322979 0.906908
vt 0.297706 0.729136
vt 0.297705 0.736177
vt 0.173651 0.913898
vt 0.148484 0.736177
vt 0.781782 0.337063
vt 0.657406 0.514829
vt 0.798086 0.804128
vt 0.898661 0.699762
vt 0.898661 0.804251
vt 0.648865 0.699639
vt 0.772892 0.514829
vt 0.798087 0.699639
vt 0.648865 0.883383
vt 0.772792 0.700428
vt 0.798086 0.883383
vt 0.756147 0.000000
vt 0.996646 0.371378
vt 0.994329 0.449665
vt 0.648865 0.995923
vt 0.728467 0.883383
vt 0.728467 1.000000
vt 0.648865 0.750313
vt 0.536312 0.531471
vt 0.648865 0.514829
vt 0.004909 0.369080
vt 0.148484 0.530848
vt 0.040509 0.743449
vt 0.000000 0.515644
vt 0.897285 0.804587
vt 0.959260 0.919773
vt 0.896682 0.920146
vt 0.999834 0.193963
vt 0.000210 0.195453
vt 0.000000 0.131271
vt 0.148484 0.736177
vt 0.266586 0.515644
vt 0.297706 0.736177
vt 0.131877 0.754505
vt 0.240386 0.000000
vt 0.297706 0.729136
vt 0.341887 0.515644
vt 0.648865 0.767369
vt 0.928631 0.514829
vt 0.500573 0.184937
vt 0.500590 0.337063
vt 0.896682 0.905484
vt 0.421679 0.906908
vt 0.272350 0.913898
vt 0.756089 0.514829
vt 0.798086 0.699639
vt 0.671064 0.515651
vt 0.670951 0.699639
vt 0.654282 0.001120
vt 0.652075 0.884675
vt 0.500574 0.767369
vt 0.003945 0.450822
vt 0.148484 0.754505
vt 0.959260 0.804251
vt 1.000000 0.130396
vt 0.153919 0.515654
vn 0.0000 0.0000 -1.0000
vn -0.9924 0.0000 0.1228
vn -1.0000 0.0000 0.0000
vn 0.0000 0.2330 0.9725
vn 1.0000 0.0000 0.0000
vn -0.9895 0.0000 -0.1444
vn 0.0000 1.0000 0.0000
vn 0.0000 0.0000 1.0000
vn 0.0000 -0.9895 -0.1444
vn 0.0000 0.9895 -0.1444
vn 0.9895 0.0000 -0.1444
vn 0.0074 0.0108 0.9999
vn 0.0000 -0.9925 0.1221
vn 0.0000 0.9924 0.1234
vn 0.9925 0.0000 0.1226
vn 0.9915 0.1233 -0.0421
vn -0.0271 -0.9996 0.0101
vn 0.0143 -0.4492 0.8933
vn -0.9610 -0.2765 0.0000
vn 0.0000 0.4600 -0.8879
vn -0.0001 -1.0000 -0.0030
vn 0.9997 -0.0251 0.0000
vn -0.9900 -0.1413 0.0053
vn 0.0000 -0.2829 -0.9592
vn -0.9895 -0.0278 0.1417
vn 0.0303 -0.9893 0.1426
vn -0.0282 0.9894 0.1426
vn 0.9892 0.0308 0.1435
vn 0.9931 0.1169 0.0000
vn 0.0000 -0.9996 -0.0296
vn 0.0000 -0.4444 0.8958
vn -0.9615 -0.2743 -0.0166
vn 0.0000 -1.0000 -0.0027
vn 0.9997 -0.0249 -0.0054
vn -0.9900 -0.1410 0.0000
vn 0.0051 -0.2854 -0.9584
usemtl Material
s off
f 5/1/1 11/2/1 1/3/1
f 8/4/2 18/5/2 7/6/2
f 5/7/3 6/8/3 21/9/3
f 4/10/4 28/11/4 29/12/4
f 3/13/5 4/14/5 22/15/5
f 5/7/6 14/16/6 6/8/6
f 12/17/7 9/18/7 11/19/7
f 3/20/8 10/21/8 7/22/8
f 7/6/3 12/23/3 5/7/3
f 1/24/5 9/25/5 3/13/5
f 16/26/1 13/27/1 14/28/1
f 6/29/9 13/30/9 2/31/9
f 1/32/10 16/33/10 5/34/10
f 2/35/11 15/36/11 1/24/11
f 19/37/12 17/38/12 20/39/12
f 4/40/13 17/41/13 8/42/13
f 7/43/14 19/44/14 3/45/14
f 3/13/15 20/46/15 4/14/15
f 2/35/16 25/47/16 23/48/16
f 24/49/17 25/50/17 26/51/17
f 22/52/18 26/53/18 25/54/18
f 6/8/19 26/55/19 21/9/19
f 2/56/20 24/57/20 6/58/20
f 30/59/21 28/60/21 27/61/21
f 4/14/22 30/62/22 22/15/22
f 8/4/23 27/63/23 28/64/23
f 22/65/24 27/66/24 21/67/24
f 5/1/1 12/68/1 11/2/1
f 8/4/25 17/69/25 18/5/25
f 21/9/3 8/4/3 7/6/3
f 7/6/3 5/7/3 21/9/3
f 4/10/4 8/70/4 28/11/4
f 22/15/5 2/35/5 1/24/5
f 1/24/5 3/13/5 22/15/5
f 5/7/6 16/71/6 14/16/6
f 12/17/7 10/72/7 9/18/7
f 3/20/8 9/73/8 10/21/8
f 7/6/3 10/74/3 12/23/3
f 1/24/5 11/75/5 9/25/5
f 16/26/1 15/76/1 13/27/1
f 6/29/9 14/77/9 13/30/9
f 1/32/10 15/78/10 16/33/10
f 2/35/11 13/79/11 15/36/11
f 19/37/12 18/80/12 17/38/12
f 4/40/26 20/81/26 17/41/26
f 7/43/27 18/82/27 19/44/27
f 3/13/28 19/83/28 20/46/28
f 2/35/29 22/15/29 25/47/29
f 24/49/30 23/84/30 25/50/30
f 22/52/31 21/85/31 26/53/31
f 6/8/32 24/86/32 26/55/32
f 2/56/20 23/87/20 24/57/20
f 30/59/33 29/88/33 28/60/33
f 4/14/34 29/89/34 30/62/34
f 8/4/35 21/9/35 27/63/35
f 22/65/36 30/90/36 27/66/36
